<?xml version="1.0" encoding="UTF-8"?>
<svg id="Layer_1" data-name="Layer 1" xmlns="http://www.w3.org/2000/svg" viewBox="0 0 905.18 287.89">
  <defs>
    <style>
      .cls-1 {
        fill: #ff6753;
      }

      .cls-2 {
        fill: #2e0704;
        font-family: Poppins-Regular, Poppins;
        font-size: 180px;
      }

      .cls-3 {
        fill: none;
        stroke: #ff513d;
        stroke-linecap: round;
        stroke-miterlimit: 10;
        stroke-width: 25px;
      }

      .cls-4 {
        fill: #ff8d7b;
      }

      .cls-5 {
        fill: #ff513d;
      }

      .cls-6 {
        fill: #ff7b67;
      }
    </style>
  </defs>
  <text class="cls-2" transform="translate(245.14 184.93)"><tspan x="0" y="0">Creoviz</tspan></text>
  <path class="cls-3" d="M29.15,174.96c-10.54-16.42-16.65-35.96-16.65-56.92C12.5,59.75,59.75,12.5,118.04,12.5c20.51,0,39.66,5.85,55.86,15.98"/>
  <circle class="cls-5" cx="189.62" cy="194.18" r="15.72"/>
  <circle class="cls-1" cx="145.3" cy="220.21" r="14.02"/>
  <circle class="cls-6" cx="100.5" cy="222.18" r="12.05"/>
  <circle class="cls-4" cx="58.67" cy="206.2" r="9.19"/>
  <path class="cls-5" d="M98.76,85.72v61.25c0,4.55,5.01,7.33,8.87,4.91l48.97-30.62c3.63-2.27,3.63-7.56,0-9.83l-48.97-30.62c-3.86-2.41-8.87.36-8.87,4.91Z"/>
</svg>